<?xml version="1.0" encoding="UTF-8" standalone="no"?>
<!-- Created with Inkscape (http://www.inkscape.org/) -->

<svg
   width="210mm"
   height="297mm"
   viewBox="0 0 210 297"
   version="1.1"
   id="svg1"
   xml:space="preserve"
   inkscape:version="1.4 (e7c3feb100, 2024-10-09)"
   sodipodi:docname="logo.svg"
   xmlns:inkscape="http://www.inkscape.org/namespaces/inkscape"
   xmlns:sodipodi="http://sodipodi.sourceforge.net/DTD/sodipodi-0.dtd"
   xmlns="http://www.w3.org/2000/svg"
   xmlns:svg="http://www.w3.org/2000/svg"><sodipodi:namedview
     id="namedview1"
     pagecolor="#ffffff"
     bordercolor="#666666"
     borderopacity="1.0"
     inkscape:showpageshadow="2"
     inkscape:pageopacity="0.0"
     inkscape:pagecheckerboard="0"
     inkscape:deskcolor="#d1d1d1"
     inkscape:document-units="mm"
     inkscape:zoom="0.33095188"
     inkscape:cx="444.17333"
     inkscape:cy="972.95111"
     inkscape:window-width="1451"
     inkscape:window-height="963"
     inkscape:window-x="0"
     inkscape:window-y="46"
     inkscape:window-maximized="0"
     inkscape:current-layer="layer1" /><defs
     id="defs1" /><g
     inkscape:label="Layer 1"
     inkscape:groupmode="layer"
     id="layer1"><g
       id="g20"
       transform="matrix(1.4764317,0,0,1.4764317,-44.295468,-63.416009)"><path
         style="fill:none;fill-opacity:0.58344;stroke:#000000;stroke-width:1.27474;stroke-linecap:round;stroke-linejoin:bevel;stroke-opacity:1;paint-order:stroke markers fill"
         d="m 128.66627,241.14692 c -0.79536,-0.29862 -2.05452,-0.91526 -2.79812,-1.37031 -1.29307,-0.66054 -2.07456,-9.98912 -4.75976,-10.36782 7.42469,15.8193 -14.06641,7.87301 -24.573397,5.45855 -8.91517,-2.04867 -12.171169,-2.96706 -16.895752,-5.33998 -6.653797,-3.34186 -11.359134,-6.95601 -15.334652,-11.77849 -2.680131,-3.25112 -2.319679,-3.15012 -6.730531,-1.88581 -4.180552,1.19831 -8.599136,0.54741 -12.232479,-1.80196 -1.334439,-0.86286 -2.721006,-1.44568 -2.99798,-1.57274 -0.28582,-0.13111 -1.492174,-0.43249 -2.617163,-0.95632 -2.0032,-0.93274 -3.845293,-2.84555 -4.272145,-4.43615 -0.117999,-0.4397 -0.342951,-1.24916 -0.499891,-1.79878 -0.238366,-0.83479 0.08154,-0.65381 1.943007,1.09925 3.193913,3.00792 4.123635,2.79864 4.667735,-1.0507 0.42908,-3.0356 1.3571,-4.69599 3.423023,-6.12439 3.113116,-2.15244 7.078728,-1.14296 8.590227,2.18672 0.878001,1.93415 0.980889,3.60762 0.335608,5.45867 -0.306568,0.87943 -0.182587,1.4812 0.162578,1.79144 0.669116,0.60143 2.169422,0.10732 2.975682,-1.58342 0.62426,-1.30909 0.622974,-1.66268 -0.01995,-5.4858 -0.942157,-5.60262 -0.885674,-15.11862 0.135771,-22.87387 0.469794,-3.56689 0.790366,-8.31864 0.791302,-11.72927 0.0024,-8.7965 -0.549973,-10.9873 -8.532412,-33.84005 -3.150331,-9.019 -3.858292,-12.56037 -3.854871,-19.28278 0.0021,-4.10821 0.204454,-6.34168 0.799462,-8.82363 0.438164,-1.82771 0.796661,-3.72127 0.796661,-4.20793 0,-0.48666 -0.724588,-1.849166 -1.610196,-3.027798 -3.193309,-4.249896 -4.340167,-6.796481 -4.983742,-11.066364 -0.328078,-2.176666 -0.601962,-5.036852 -0.608632,-6.355964 -0.01632,-3.228313 -0.498983,-5.122849 -2.474052,-9.711179 -2.698994,-6.270093 -2.246387,-9.831329 1.427186,-11.229501 1.357289,-0.516588 1.713598,-0.468614 5.153567,0.693875 3.383085,1.143265 4.354365,1.280242 11.490217,1.620422 5.973384,0.28476 8.407109,0.564388 10.415412,1.196689 2.821038,0.888188 6.350477,3.128486 9.065935,5.754569 l 1.693328,1.637593 4.502502,-1.474541 c 2.476376,-0.810998 5.581772,-1.748719 6.900883,-2.083824 6.038623,-1.534044 21.351319,-1.761495 28.580759,-0.424529 5.94681,1.099767 5.49249,1.2739 10.75532,-4.122307 2.54887,-2.613461 5.35383,-5.111242 6.23324,-5.550619 0.8794,-0.439378 3.48765,-1.377672 5.79609,-2.085094 2.30845,-0.707424 5.45633,-1.925066 6.99529,-2.70587 5.89686,-2.99181 5.84831,-2.973729 7.26987,-2.707045 2.99595,0.562044 3.47763,2.242029 2.12381,7.407378 -0.89482,3.414078 -1.00455,7.353409 -0.3439,12.346353 0.61523,4.649663 -0.0111,8.337248 -2.10269,12.379076 -0.8529,1.648185 -1.55072,3.195714 -1.55072,3.438954 0,0.243239 2.25116,3.47427 5.00259,7.180064 5.54441,7.467568 6.75916,9.704702 8.54918,15.744452 2.22509,7.50772 2.55869,10.17388 2.56038,20.46292 0.002,9.11383 -0.0534,9.76282 -1.8423,21.78533 -2.47252,16.61665 -2.69038,18.92081 -3.06146,32.37819 -0.29489,10.69455 -0.40123,11.89625 -1.37327,15.51878 -1.39035,5.18147 -3.0384,9.35082 -5.24211,13.26184 -0.99103,1.75882 -2.27597,4.11877 -2.85543,5.24434 l -1.05356,2.04648 1.25691,3.65883 c 1.65578,4.81991 1.6778,7.13065 0.0852,8.94448 -1.47715,1.68239 -4.40138,3.28602 -7.43106,4.07514 -1.29088,0.33624 -2.45654,0.74688 -2.59037,0.91255 -0.13383,0.16568 -0.7538,0.9975 -1.37772,1.8485 -1.63689,2.23271 -4.35853,3.3561 -8.81477,3.63842 -2.54634,0.16132 -4.02015,0.0693 -5.0437,-0.31502 z"
         id="path2"
         sodipodi:nodetypes="sccsssssssssssssssssssscssssssssssscsssssssssssssscssssscssssssss" /><path
         id="path3"
         style="fill:none;fill-opacity:0.58344;stroke:#000000;stroke-width:0.844;stroke-linecap:round;stroke-linejoin:bevel;stroke-dasharray:none;stroke-opacity:1;paint-order:stroke markers fill"
         d="m 138.94385,157.02225 c -6.09698,-5.33943 -3.00069,-18.29311 5.43863,-20.0004 5.7854,-1.17039 13.31485,-2.6856 17.10719,3.0817 3.53791,5.38036 2.36011,14.21878 -3.25367,16.66002 -5.28773,2.29945 -15.68764,4.21773 -19.29721,0.26586"
         sodipodi:nodetypes="csssc" /><path
         style="fill:#000000;fill-opacity:1;stroke:none;stroke-width:0.843756;stroke-linecap:round;stroke-linejoin:bevel;paint-order:stroke markers fill"
         id="path4"
         sodipodi:type="arc"
         sodipodi:cx="144.82401"
         sodipodi:cy="148.53383"
         sodipodi:rx="2.5085397"
         sodipodi:ry="2.96785"
         sodipodi:start="2.7036895"
         sodipodi:end="2.5090853"
         sodipodi:open="true"
         sodipodi:arc-type="arc"
         d="m 142.55216,149.79232 a 2.5085397,2.96785 0 0 1 1.0989,-3.88192 2.5085397,2.96785 0 0 1 3.3307,1.10977 2.5085397,2.96785 0 0 1 -0.77493,3.98986 2.5085397,2.96785 0 0 1 -3.40608,-0.7217" /><path
         style="fill:#000000;fill-opacity:1;stroke:none;stroke-width:0.843756;stroke-linecap:round;stroke-linejoin:bevel;paint-order:stroke markers fill"
         id="path5"
         sodipodi:type="arc"
         sodipodi:cx="156.76607"
         sodipodi:cy="146.62593"
         sodipodi:rx="2.5085397"
         sodipodi:ry="2.96785"
         sodipodi:start="2.7036895"
         sodipodi:end="2.5090853"
         sodipodi:open="true"
         sodipodi:arc-type="arc"
         d="m 154.49423,147.88442 a 2.5085397,2.96785 0 0 1 1.09889,-3.88192 2.5085397,2.96785 0 0 1 3.3307,1.10978 2.5085397,2.96785 0 0 1 -0.77493,3.98986 2.5085397,2.96785 0 0 1 -3.40608,-0.72171" /><path
         id="path6"
         style="fill:none;fill-opacity:0.58344;stroke:#000000;stroke-width:0.844;stroke-linecap:round;stroke-linejoin:bevel;stroke-dasharray:none;stroke-opacity:1;paint-order:stroke markers fill"
         d="m 139.18598,134.4236 c 6.14901,-1.80669 19.79206,-1.37923 22.90329,5.58002 2.62811,5.87861 1.37095,12.64915 -3.25367,16.66002"
         sodipodi:nodetypes="csc" /><path
         id="path7"
         style="fill:none;fill-opacity:0.58344;stroke:#000000;stroke-width:0.844;stroke-linecap:round;stroke-linejoin:bevel;stroke-dasharray:none;stroke-opacity:1;paint-order:stroke markers fill"
         d="m 139.48578,131.12582 c 6.14901,-1.80669 19.79206,1.81862 22.90329,8.77787 2.62811,5.87861 1.37095,12.64915 -3.25367,16.66002 -4.40384,3.81939 -20.84317,6.30271 -28.63369,0.31411 -2.77734,-2.13495 -1.57682,-12.58687 -2.35565,-14.33862"
         sodipodi:nodetypes="csssc" /><path
         style="fill:#000000;fill-opacity:1;stroke:none;stroke-width:1.13688;stroke-linecap:round;stroke-linejoin:bevel;paint-order:stroke markers fill"
         id="path8"
         sodipodi:type="arc"
         sodipodi:cx="121.96439"
         sodipodi:cy="130.64587"
         sodipodi:rx="3.2830181"
         sodipodi:ry="4.1170759"
         sodipodi:start="2.7036895"
         sodipodi:end="2.5090853"
         sodipodi:open="true"
         sodipodi:arc-type="arc"
         d="m 118.99115,132.39168 a 3.2830181,4.1170759 0 0 1 1.43816,-5.38509 3.2830181,4.1170759 0 0 1 4.35902,1.5395 3.2830181,4.1170759 0 0 1 -1.01419,5.53484 3.2830181,4.1170759 0 0 1 -4.45766,-1.00117" /><path
         style="fill:#000000;fill-opacity:1;stroke:none;stroke-width:1.13688;stroke-linecap:round;stroke-linejoin:bevel;paint-order:stroke markers fill"
         id="path9"
         sodipodi:type="arc"
         sodipodi:cx="157.94017"
         sodipodi:cy="124.25018"
         sodipodi:rx="3.2830181"
         sodipodi:ry="4.1170759"
         sodipodi:start="2.7036895"
         sodipodi:end="2.5090853"
         sodipodi:open="true"
         sodipodi:arc-type="arc"
         d="m 154.96693,125.99599 a 3.2830181,4.1170759 0 0 1 1.43816,-5.38509 3.2830181,4.1170759 0 0 1 4.35901,1.5395 3.2830181,4.1170759 0 0 1 -1.01418,5.53484 3.2830181,4.1170759 0 0 1 -4.45766,-1.00117" /><path
         id="rect10"
         style="fill:#000000;fill-opacity:1;stroke-width:0.844;stroke-linecap:round;stroke-linejoin:bevel;paint-order:stroke markers fill"
         d="m 132.51076,173.28331 c 9.72393,4.80108 26.96689,1.232 33.47746,-24.88324 -1.64999,6.53107 -0.71387,9.3956 -0.95263,10.88006 -7.99403,18.18883 -29.39452,21.04639 -32.52483,14.00318 z"
         sodipodi:nodetypes="cccc" /><path
         id="rect11"
         style="stroke-width:0.844;stroke-linecap:round;stroke-linejoin:bevel;paint-order:stroke markers fill"
         d="m 138.50673,235.04172 2.9708,3.78048 c -0.97667,-0.32987 -1.85058,1.30708 -2.86481,1.30708 z"
         sodipodi:nodetypes="cccc" /><path
         id="path11"
         style="stroke-width:0.844;stroke-linecap:round;stroke-linejoin:bevel;paint-order:stroke markers fill"
         d="m 151.84994,227.41868 2.04642,3.80546 c -0.97667,-0.32987 -1.57577,1.432 -2.59,1.432 z"
         sodipodi:nodetypes="cccc" /><path
         id="path12"
         style="stroke-width:0.844;stroke-linecap:round;stroke-linejoin:bevel;paint-order:stroke markers fill"
         d="m 118.16058,234.4799 4.73972,-0.80793 c -0.75577,0.70108 0.26615,2.24995 -0.2176,3.14137 z"
         sodipodi:nodetypes="cccc" /><path
         id="rect12"
         style="stroke-width:0.844;stroke-linecap:round;stroke-linejoin:bevel;paint-order:stroke markers fill"
         d="m 41.83255,65.292702 c 5.934142,1.476413 10.135081,3.167992 14.492935,3.442717 12.567756,0.792289 10.798143,8.387014 13.206997,12.668468 -0.443127,3.061567 -2.228531,6.027258 -4.528321,8.956206 -5.329368,3.887877 -9.510307,4.841525 -11.300211,4.045804 -12.1034,-7.560644 -8.788231,-19.178806 -11.8714,-29.113195 z"
         sodipodi:nodetypes="cscccc" /><path
         id="path13"
         style="stroke-width:0.586593;stroke-linecap:round;stroke-linejoin:bevel;paint-order:stroke markers fill"
         d="m 150.45773,53.730394 c 0.25202,4.97713 0.61603,9.26282 1.25701,12.714177 1.84855,9.953494 -1.86123,12.175417 -3.52403,13.03826 -1.6628,0.862843 -5.05053,-1.012454 -7.11999,-2.060372 -3.16269,-3.157953 -3.41388,-5.563317 -3.29256,-7.152726 2.04808,-11.296194 7.64762,-11.646657 12.67957,-16.539339 z"
         sodipodi:nodetypes="cszccc" /><path
         style="fill:none;fill-opacity:1;stroke:#000000;stroke-width:0.844;stroke-linecap:round;stroke-linejoin:bevel;stroke-dasharray:none;stroke-opacity:1;paint-order:stroke markers fill"
         id="path14"
         sodipodi:type="arc"
         sodipodi:cx="48.298222"
         sodipodi:cy="205.02896"
         sodipodi:rx="1.648459"
         sodipodi:ry="1.943235"
         sodipodi:start="2.5197077"
         sodipodi:end="2.5090853"
         sodipodi:open="true"
         sodipodi:arc-type="arc"
         d="m 46.958384,206.16103 a 1.648459,1.943235 0 0 1 0.375943,-2.70848 1.648459,1.943235 0 0 1 2.298613,0.43597 1.648459,1.943235 0 0 1 -0.363735,2.7108 1.648459,1.943235 0 0 1 -2.300544,-0.42158" /><path
         style="fill:#000000;fill-opacity:1;stroke:none;stroke-width:0.844;stroke-linecap:round;stroke-linejoin:bevel;stroke-dasharray:none;stroke-opacity:1;paint-order:stroke markers fill"
         id="path15"
         d="m 53.772131,208.344 c -2.177942,0.38762 -4.443912,0.15236 -5.67266,-1.17822 -0.539216,-0.58391 -1.213655,-0.96676 -1.745819,-1.31431 1.113337,3.72568 5.316098,3.72625 8.46948,3.69712 0.0024,5.3e-4 -0.568877,-1.19449 -1.051001,-1.20459 z"
         sodipodi:nodetypes="csccc" /><path
         style="fill:#000000;fill-opacity:1;stroke:none;stroke-width:0.844;stroke-linecap:round;stroke-linejoin:bevel;stroke-dasharray:none;stroke-opacity:1;paint-order:stroke markers fill"
         id="path16"
         d="m 45.270027,213.41503 c -2.493725,-1.53724 -3.953446,-4.53734 -3.339646,-6.50812 -0.0262,0.10351 -1.07915,0.31931 -1.119079,0.41805 -0.271594,3.65263 2.300841,5.2224 4.432524,7.29969 0.0014,0.002 0.366936,-0.86838 0.0262,-1.20962 z"
         sodipodi:nodetypes="ccccc" /><path
         id="rect16"
         style="stroke-width:0.844;stroke-linecap:round;stroke-linejoin:bevel;paint-order:stroke markers fill"
         d="m 123.8724,233.54152 c 6.4636,0.79368 12.62196,0.18324 18.08975,-3.60382 v 0.91862 c -4.82507,4.58262 -11.2128,4.7797 -18.08975,3.60382 z"
         sodipodi:nodetypes="ccccc" /><path
         id="path17"
         style="stroke-width:0.708017;stroke-linecap:round;stroke-linejoin:bevel;paint-order:stroke markers fill"
         d="m 141.71099,229.07468 c 4.3977,-0.83184 8.58607,-3.08252 11.56731,-8.25788 l 0.15225,0.92134 c -2.42517,5.8114 -6.60859,7.61783 -11.34246,8.17044 z"
         sodipodi:nodetypes="ccccc" /><path
         id="path18"
         style="stroke-width:0.708017;stroke-linecap:round;stroke-linejoin:bevel;paint-order:stroke markers fill"
         d="m 141.24775,223.40817 c -0.71812,4.33436 0.75649,5.99061 3.89404,11.9329 l -1.37581,0.35083 c -3.81463,-5.8893 -5.47437,-8.40107 -4.33412,-13.0125 2.12285,-1.26921 4.10716,-3.36053 6.8299,-4.85163 -1.80721,2.39465 -2.87259,3.98945 -5.01401,5.5804 z"
         sodipodi:nodetypes="cccccc" /><path
         id="path19"
         style="stroke-width:0.844;stroke-linecap:round;stroke-linejoin:bevel;paint-order:stroke markers fill"
         d="m 114.11551,227.8868 c 2.49115,0.2657 5.39586,-0.45079 7.41292,0.94089 -0.75577,0.70108 0.57127,1.24131 0.0875,2.13273 -2.65783,-2.2565 -5.33979,-2.11291 -7.50044,-3.07362 z"
         sodipodi:nodetypes="cccc" /><path
         id="path20"
         style="stroke-width:0.502175;stroke-linecap:round;stroke-linejoin:bevel;paint-order:stroke markers fill"
         d="m 112.8712,238.92206 c 2.15606,-3.24238 3.49724,-6.70972 2.99487,-10.68602 l 0.47931,0.25414 c 1.09066,3.85214 -0.52801,7.32798 -2.99488,10.68602 z"
         sodipodi:nodetypes="ccccc" /></g></g></svg>
